<?xml version="1.0" encoding="UTF-8" standalone="no"?>
<!-- Uploaded to: SVG Repo, www.svgrepo.com, Generator: SVG Repo Mixer Tools -->

<svg
   width="800px"
   height="800px"
   viewBox="0 0 64 64"
   aria-hidden="true"
   role="img"
   class="iconify iconify--emojione-monotone"
   preserveAspectRatio="xMidYMid meet"
   version="1.1"
   id="svg1"
   sodipodi:docname="surrender.svg"
   inkscape:version="1.4 (86a8ad7, 2024-10-11)"
   xmlns:inkscape="http://www.inkscape.org/namespaces/inkscape"
   xmlns:sodipodi="http://sodipodi.sourceforge.net/DTD/sodipodi-0.dtd"
   xmlns="http://www.w3.org/2000/svg"
   xmlns:svg="http://www.w3.org/2000/svg">
  <defs
     id="defs1" />
  <sodipodi:namedview
     id="namedview1"
     pagecolor="#ffffff"
     bordercolor="#111111"
     borderopacity="1"
     inkscape:showpageshadow="0"
     inkscape:pageopacity="0"
     inkscape:pagecheckerboard="1"
     inkscape:deskcolor="#d1d1d1"
     inkscape:zoom="0.96625"
     inkscape:cx="72.962484"
     inkscape:cy="309.96119"
     inkscape:window-width="1920"
     inkscape:window-height="991"
     inkscape:window-x="-9"
     inkscape:window-y="-9"
     inkscape:window-maximized="1"
     inkscape:current-layer="svg1" />
  <path
     d="M51.69 25.192c1.354 0 2.783.208 4.31.675L47.4 2.675C45.875 2.208 44.443 2 43.092 2C31.754 2 25.844 16.644 14.507 16.644c-1.354 0-2.783-.209-4.31-.675L8 16.753L24.493 62h2.613l-8.261-22.738c1.523.467 2.907.574 4.259.574c11.34-.001 17.249-14.644 28.586-14.644M17.994 36.959l-6.803-18.662c7.842 1.958 13.375-2.842 18.903-7.454c4.178-3.485 8.063-6.847 12.997-6.847c.902 0 1.838.112 2.791.336l7.012 18.909a15.252 15.252 0 0 0-1.204-.047c-6.404 0-11.073 3.964-15.588 7.797c-4.146 3.52-8.063 6.846-12.998 6.846c-.902.001-3.194-.157-5.11-.878"
     fill="#000000"
     id="path1"
     style="fill:#a8a8a8;fill-opacity:1" />
  <path
     style="fill:#a8a8a8;fill-opacity:1;stroke-width:1.03493"
     d="m 276.84347,471.79182 c -13.4862,-0.86687 -32.45023,-4.20793 -43.25105,-7.61991 l -8.18299,-2.585 -42.10637,-115.53584 c -23.1585,-63.5447 -41.94247,-115.69971 -41.74216,-115.90003 0.20032,-0.20031 3.59277,0.30179 7.53879,1.11581 47.27808,9.75282 96.34213,-1.0013 144.49049,-31.6702 22.52129,-14.34532 38.34309,-26.47568 84.15885,-64.52343 35.63408,-29.59236 56.23228,-45.394961 71.9469,-55.196475 31.58679,-19.701306 60.22589,-29.165231 88.25789,-29.165231 12.67196,0 32.67183,2.583726 34.55821,4.464478 0.98704,0.984096 85.17385,226.271058 86.9917,232.792958 0.46371,1.66365 -0.70587,1.81267 -14.36362,1.83009 -43.45576,0.0554 -81.27514,13.15035 -126.63173,43.84619 -17.01416,11.51461 -32.13095,23.41461 -67.2794,52.96259 -49.29775,41.44278 -68.11518,55.13972 -93.1436,67.7979 -27.71119,14.015 -52.18985,19.25354 -81.24191,17.3861 z"
     id="path2"
     transform="scale(0.08)" />
  <path
     style="fill:#000000;fill-opacity:1;stroke-width:0.258732"
     d=""
     id="path3"
     transform="scale(0.08)" />
  <path
     style="fill:#000000;stroke-width:0.0914757"
     d=""
     id="path4"
     transform="scale(0.08)" />
</svg>
